<?xml version="1.0" encoding="utf-8"?>
<!-- Generator: Adobe Illustrator 18.0.0, SVG Export Plug-In . SVG Version: 6.00 Build 0)  -->
<!DOCTYPE svg PUBLIC "-//W3C//DTD SVG 1.1//EN" "http://www.w3.org/Graphics/SVG/1.1/DTD/svg11.dtd">
<svg version="1.1" id="Layer_1" xmlns="http://www.w3.org/2000/svg" xmlns:xlink="http://www.w3.org/1999/xlink" x="0px" y="0px"
	 viewBox="0 0 64 64" enable-background="new 0 0 64 64" xml:space="preserve">
<g>
	<g>
		<g>
			<path fill="#7EC398" d="M32,0c17.7,0,32,14.3,32,32S49.7,64,32,64S0,49.7,0,32S14.3,0,32,0z"/>
		</g>
	</g>
	<g>
		<g>
			<path fill="#FFFFFF" d="M44,50.7c0,0.7-0.6,1.3-1.3,1.3H13.3c-0.7,0-1.3-0.6-1.3-1.3V31V13.3c0-0.7,0.6-1.3,1.3-1.3h23.3l7.3,7.1
				V50.7z"/>
		</g>
	</g>
	<g>
		<g>
			<polygon fill="#D3D5DD" points="44,19.1 36.7,19.1 36.7,12"/>
		</g>
	</g>
	<g>
		<g>
			<path fill="#68B2EA" d="M23.1,26.7c-0.1,0.2-0.2,0.5-0.3,0.7C22.9,27.2,23,26.9,23.1,26.7z"/>
		</g>
	</g>
	<g>
		<g>
			<path fill="#68B2EA" d="M22.7,27.5c-0.1,0.2-0.2,0.4-0.2,0.6C22.5,27.9,22.6,27.7,22.7,27.5z"/>
		</g>
	</g>
	<g>
		<g>
			<path fill="#68B2EA" d="M22,31.9c0.1,0.7,0.2,1.4,0.5,2.1C22.3,33.3,22.1,32.6,22,31.9z"/>
		</g>
	</g>
	<g>
		<g>
			<path fill="#CED6EA" d="M22,31.6c0,0.1,0,0.2,0,0.3C22,31.8,22,31.7,22,31.6z"/>
		</g>
	</g>
	<g>
		<g>
			<path fill="#68B2EA" d="M22,31c0,0.2,0,0.4,0,0.6C22,31.4,22,31.2,22,31z"/>
		</g>
	</g>
	<g>
		<g>
			<path fill="#D3D5DD" d="M21,27h-5c-0.5,0-1-0.4-1-1v0c0-0.5,0.4-1,1-1h7L21,27z"/>
		</g>
	</g>
	<g>
		<g>
			<path fill="#D3D5DD" d="M22,32h-6c-0.5,0-1-0.4-1-1v0c0-0.5,0.4-1,1-1h6V32z"/>
		</g>
	</g>
	<g>
		<g>
			<path fill="#FFB533" d="M44.3,41l-3.2,3.4L38,41.3l0.5-0.5l2.4-2.4l0.5-0.5L44.3,41z"/>
		</g>
	</g>
	<g>
		<g>
			<path fill="#444C63" d="M42,31c0-6.1-4.9-11-11-11c-3.8,0-7.2,2-9.2,5c0,0,0,0,0,0c-0.2,0.2-0.3,0.5-0.4,0.7
				c-0.1,0.2-0.3,0.5-0.4,0.8c-0.1,0.2-0.1,0.3-0.2,0.5h0c-0.4,0.9-0.6,2-0.7,3c0,0.1,0,0.3,0,0.4c0,0.2,0,0.4,0,0.6
				c0,0.2,0,0.3,0,0.5c0,0.2,0,0.3,0,0.5c0.5,5.6,5.2,10,10.9,10c2.4,0,4.7-0.8,6.5-2.1l1,1l2.4-2.4l-1-1C41.2,35.7,42,33.4,42,31z"
				/>
		</g>
	</g>
	<g>
		<g>
			<circle fill="#85CDF9" cx="31" cy="31" r="9"/>
		</g>
	</g>
	<g>
		<defs>
			<circle id="SVGID_1_" cx="31" cy="31" r="9"/>
		</defs>
		<clipPath id="SVGID_2_">
			<use xlink:href="#SVGID_1_"  overflow="visible"/>
		</clipPath>
		<g clip-path="url(#SVGID_2_)">
			<g>
				<path fill="#2F6BC1" d="M33.5,29H21l1-3h11.5c0.8,0,1.5,0.7,1.5,1.5v0C35,28.3,34.3,29,33.5,29z"/>
			</g>
		</g>
		<g clip-path="url(#SVGID_2_)">
			<g>
				<path fill="#2F6BC1" d="M30.5,34H22l-1-3h9.5c0.8,0,1.5,0.7,1.5,1.5l0,0C32,33.3,31.3,34,30.5,34z"/>
			</g>
		</g>
	</g>
	<g>
		<g>
			<path fill="#9E6161" d="M51.3,48c0.9,0.9,0.9,2.4,0,3.3c-0.9,0.9-2.4,0.9-3.3,0l-4-4l-3.6-3.6l3.3-3.3l0.3,0.3L51.3,48z"/>
		</g>
	</g>
</g>
</svg>
